<svg width="936" height="658" xmlns="http://www.w3.org/2000/svg" xmlns:xlink="http://www.w3.org/1999/xlink" overflow="hidden"><defs><clipPath id="clip0"><rect x="151" y="32" width="936" height="658"/></clipPath></defs><g clip-path="url(#clip0)" transform="translate(-151 -32)"><path d="M316.407 247.809C153.454 54.201 153.454 54.201 153.454 54.201 147 44.5206 155.067 30 166.361 33.2268 1086 246.196 1086 246.196 1086 246.196 1086 246.196 1086 246.196 1086 246.196 1077.93 297.825 1039.21 333.32 981.129 338.16 927.887 341.387 879.484 343 727.825 284.918 581.005 228.448 387.397 252.649 338.995 257.49 330.928 257.49 322.861 254.263 316.407 247.809Z" fill-rule="evenodd"/><path d="M504.348 488.598C405.844 369.888 405.844 369.888 405.844 369.888 401 363.383 405.844 352 415.533 353.626 1055 420.299 1055 420.299 1055 420.299 1053.39 423.551 1053.39 423.551 1053.39 423.551 1045.31 470.71 1006.56 498.355 961.341 509.738 941.963 512.991 857.993 526 756.259 495.103 657.756 465.832 559.252 488.598 523.726 495.103 517.267 496.729 509.193 493.477 504.348 488.598Z" fill-rule="evenodd"/><path d="M664.861 683.622C582.826 586.351 582.826 586.351 582.826 586.351 578 579.973 582.826 572 589.26 572 1030 572 1030 572 1030 572 1030 573.595 1030 573.595 1030 573.595 1020.35 624.622 978.527 666.081 925.445 672.459 901.317 675.649 888.448 672.459 841.801 667.676 762.982 658.108 705.075 678.838 682.555 688.405 676.121 690 669.687 688.405 664.861 683.622Z" fill-rule="evenodd"/></g></svg>